PathFileType	4	(X/Y/Z)	c:/Users/goper/Files/vsCode/490R/osim_files/C04/C04_SSWS_04.trc
DataRate	CameraRate	NumFrames	NumMarkers	Units                	OrigDataRate	OrigDataStartFrame	OrigNumFrames
250.00	250.00	9	36	mm	250.0	2662	4258
                Frame#	Time	LPSIS			LASIS			LTH1			LTH2			LTH3			LTH4			LLFE			LMFE			LSH1			LSH2			LSH3			LSH4			LLMAL			LMMAL			LCAL			LMTP5			LTOE			LMTP1			RPSIS			RASIS			RTH1			RTH2			RTH3			RTH4			RLFE			RMFE			RSH1			RSH2			RSH3			RSH4			RLMAL			RMMAL			RCAL			RMTP1			RTOE			RMTP5		
		X1	Y1	Z1	X2	Y2	Z2	X3	Y3	Z3	X4	Y4	Z4	X5	Y5	Z5	X6	Y6	Z6	X7	Y7	Z7	X8	Y8	Z8	X9	Y9	Z9	X10	Y10	Z10	X11	Y11	Z11	X12	Y12	Z12	X13	Y13	Z13	X14	Y14	Z14	X15	Y15	Z15	X16	Y16	Z16	X17	Y17	Z17	X18	Y18	Z18	X19	Y19	Z19	X20	Y20	Z20	X21	Y21	Z21	X22	Y22	Z22	X23	Y23	Z23	X24	Y24	Z24	X25	Y25	Z25	X26	Y26	Z26	X27	Y27	Z27	X28	Y28	Z28	X29	Y29	Z29	X30	Y30	Z30	X31	Y31	Z31	X32	Y32	Z32	X33	Y33	Z33	X34	Y34	Z34	X35	Y35	Z35	X36	Y36	Z36

2662	10.64400	-1065.54419	960.04205	250.26740	-1219.07837	946.14349	346.89014	-1123.73169	688.64209	384.64368	-1136.98462	628.09546	375.18915	-1186.94788	706.04095	393.92819	-1212.16907	645.70605	381.08105	-1199.28320	434.14532	362.37131	-1194.74133	415.87137	248.06053	-1097.84241	407.65573	377.90500	-1055.54114	386.07626	377.21347	-1131.05005	361.03815	378.03946	-1092.69312	333.59433	378.02460	-868.51624	215.61755	366.67697	-883.47192	233.93048	278.63580	-816.94910	276.74377	328.31476	-865.07483	73.40707	351.99203	-900.34583	71.10619	297.62027	-859.04865	99.04266	250.43268	-1070.80957	966.27435	175.26508	-1250.53723	947.93176	128.21481	-1182.07275	715.28156	42.23932	-1192.42200	656.07288	57.06342	-1243.99133	734.73602	54.45127	-1265.56580	678.71204	70.20105	-1282.74561	457.44482	124.05747	-1265.84253	455.27155	230.22882	-1220.64380	323.51483	98.53900	-1225.51147	277.64111	107.78808	-1285.70288	314.11847	104.95667	-1276.95044	274.71866	120.30103	-1228.42065	76.19154	140.84583	-1235.75037	82.23183	228.45047	-1162.36353	45.62395	180.54245	-1367.12549	18.35919	236.60222	-1402.40234	36.75711	195.95357	-1363.98938	18.03833	141.66411
2663	10.64800	-1069.50146	960.55121	250.05341	-1223.30737	946.32562	346.40485	-1129.67334	688.53192	384.30032	-1143.63635	628.07605	374.80731	-1192.96094	706.43597	393.48041	-1218.68835	646.40686	380.50076	-1208.29419	434.89456	361.84637	-1203.12329	416.82620	247.27312	-1107.04614	408.63370	377.42743	-1064.74573	387.10672	376.77280	-1140.08777	361.92520	377.49420	-1101.80286	334.62299	377.37180	-877.24084	217.27325	366.22427	-892.78827	234.82037	278.02100	-825.19006	277.56894	326.80313	-875.37091	74.86746	353.22397	-911.18591	72.05209	299.29205	-869.92365	99.26135	251.28200	-1074.86426	966.86560	175.04738	-1254.93494	949.09277	127.32639	-1185.15308	715.91626	41.81511	-1195.45813	656.52704	56.65809	-1247.36182	735.02222	54.22080	-1267.97253	678.97302	69.92762	-1284.39172	457.22211	123.55161	-1267.46802	455.22476	229.83556	-1221.72168	323.49564	98.17200	-1226.27136	277.70514	107.32021	-1286.68030	313.94400	104.63481	-1277.70923	274.59943	119.74558	-1228.48743	76.20079	140.76926	-1236.02551	82.28234	228.39708	-1162.42517	45.77464	180.49771	-1367.21289	18.39436	236.63869	-1402.47412	36.67609	195.87950	-1364.05957	17.91426	141.63257
2664	10.65200	-1073.54858	961.09406	249.86784	-1227.53271	946.50830	345.91525	-1135.76770	688.42719	384.00925	-1150.22095	628.16296	374.47205	-1198.90356	707.02124	393.00354	-1225.17126	647.17688	379.94748	-1217.36975	435.58014	361.28674	-1211.61450	417.78778	246.60301	-1115.95837	409.61301	377.00516	-1073.65442	388.26660	376.26413	-1149.30115	362.78381	376.59961	-1110.87427	335.62506	376.52539	-886.27441	218.63068	365.68973	-902.12085	235.50624	277.29807	-834.32800	277.69116	324.57495	-886.18475	75.97973	354.36694	-922.14337	72.78309	300.92386	-880.92401	99.29338	252.13799	-1078.78455	967.48181	174.88615	-1264.00586	952.31708	120.47101	-1188.42944	716.42023	41.44842	-1198.46289	656.94604	56.25507	-1249.70728	735.31830	54.17365	-1271.23425	678.83289	70.13143	-1285.64050	457.13422	122.79216	-1269.00537	455.22162	229.51550	-1222.85510	323.50864	97.73529	-1227.20776	277.71402	107.01783	-1287.70654	314.06058	104.68533	-1278.57202	274.21667	119.76656	-1228.54797	76.19482	140.73155	-1236.41711	82.25019	228.67017	-1162.52002	45.88859	180.46246	-1367.29260	18.37793	236.57301	-1402.55286	36.59288	195.79488	-1364.09204	17.79970	141.57513
2665	10.65600	-1077.48792	961.62384	249.80103	-1231.75439	946.69116	345.42163	-1141.73169	688.41968	383.71402	-1156.93872	628.22729	374.14120	-1204.61536	707.64703	392.63861	-1231.73804	647.93103	379.26749	-1226.25854	436.54013	360.65338	-1220.19714	418.84781	245.94499	-1125.02319	410.39279	376.35306	-1082.83484	389.25403	375.79007	-1158.45435	363.56842	375.69745	-1119.91992	336.60953	375.78308	-895.09814	219.94429	365.16101	-912.69989	235.06157	277.65527	-843.01611	277.86600	322.77673	-897.08923	76.98807	355.54410	-933.46869	73.44971	302.58252	-892.17145	99.06065	253.03270	-1082.74902	968.08679	174.70276	-1267.78345	952.55560	120.43513	-1191.63708	716.94250	41.12056	-1201.20984	657.52771	55.88842	-1253.32361	735.50464	54.05175	-1274.28101	678.88727	69.88519	-1287.11572	456.82590	122.40425	-1271.72168	454.81903	229.05702	-1223.84058	323.51810	97.36585	-1228.16541	277.69400	106.68362	-1288.64404	314.33398	104.46082	-1279.47693	274.13074	119.44307	-1228.67297	76.20162	140.66316	-1237.07996	82.46931	229.29700	-1162.54944	46.06610	180.43727	-1367.35010	18.36826	236.55086	-1402.61743	36.48885	195.72891	-1364.15381	17.71433	141.52486
2666	10.66000	-1081.46594	962.13770	249.68127	-1235.97302	946.87421	344.92426	-1147.77966	688.38818	383.49088	-1163.54138	628.40039	373.83417	-1210.16101	708.41425	392.34387	-1238.27747	648.80328	378.62366	-1234.97632	437.63358	360.09952	-1228.56543	420.01215	245.25615	-1134.50757	411.34448	375.31924	-1091.61023	390.21603	374.96686	-1167.40161	364.66675	375.09183	-1129.08765	337.32492	374.78607	-904.53668	220.80560	364.57068	-922.31989	235.09229	277.05521	-851.88251	277.70905	321.03302	-908.28052	77.78969	356.73859	-943.78314	74.73389	303.74155	-903.45569	98.69278	253.95699	-1086.72144	968.67413	174.59807	-1271.81384	953.19733	120.03056	-1194.78247	717.49475	40.77650	-1204.06616	657.95319	55.56369	-1256.49414	735.71783	53.88206	-1273.76819	680.54291	67.21162	-1288.26965	456.73566	121.81615	0.00000	0.00000	0.00000	-1224.94690	323.43707	96.99388	-1228.05371	278.33292	105.14291	-1289.34717	313.01346	105.31354	-1280.27563	274.08179	119.06100	-1228.75488	76.20710	140.63371	-1237.15491	82.51681	229.19145	-1162.60339	46.17017	180.40793	-1367.37598	18.33282	236.57565	-1402.74170	36.32476	195.68242	-1364.19409	17.60634	141.50232
2667	10.66400	-1085.40979	962.65405	249.69582	-1240.18860	947.05682	344.42343	-1153.67920	688.47369	383.27344	-1170.18896	628.58746	373.62128	-1216.11572	709.08228	391.91708	-1244.63281	649.78412	378.18646	-1243.75989	438.65775	359.49429	-1237.17676	421.11197	244.65311	-1143.36060	412.22418	374.63324	-1100.50903	391.08432	374.23599	-1176.46912	365.52628	374.38150	-1138.04810	338.26193	374.05643	-913.62701	221.68037	363.96625	-931.98792	234.88229	276.41061	-860.46466	277.25250	318.67075	-919.64264	78.33824	357.89124	-956.57477	73.97675	305.57019	-914.92133	98.11617	254.85419	-1090.44507	969.28967	174.58185	-1275.43481	953.71497	119.94302	-1197.92310	717.96332	40.47733	-1206.84998	658.40192	55.21165	-1259.73535	735.89264	53.69289	-1280.05139	679.02155	69.48569	-1289.62744	456.46957	121.22569	0.00000	0.00000	0.00000	-1225.80994	323.45517	96.65813	-1229.00745	278.23779	104.89635	-1290.15112	313.52411	105.49918	-1281.16064	273.80768	119.18491	-1228.88159	76.20595	140.63660	-1237.21460	82.60600	229.12921	-1162.63940	46.29086	180.36833	-1367.39905	18.29294	236.56393	-1402.81238	36.22493	195.61598	-1364.24097	17.50719	141.43762
2668	10.66800	-1089.32007	963.12030	249.69408	-1244.40112	947.23901	343.91928	-1159.80493	688.52740	383.17075	-1176.80334	628.81921	373.35208	-1222.03064	709.81372	391.57526	-1251.10168	650.64038	377.54651	-1252.22290	439.94531	358.89594	-1243.75952	422.98004	243.62778	-1152.03638	413.26520	373.89850	-1109.49048	391.86362	373.48831	-1185.53235	366.44775	373.52374	-1147.13110	339.09567	373.35736	-923.23853	222.10924	363.24469	-942.05280	234.52467	275.44174	-869.64972	276.57303	317.07925	-931.31470	78.79365	359.06772	-968.87140	74.26704	307.22742	-926.22235	97.60414	255.43285	-1094.43347	969.86304	174.52379	-1279.33850	954.09186	119.61892	-1200.86182	718.46863	40.14208	-1209.44165	658.89569	54.88350	-1262.81860	736.00671	53.46224	-1282.88354	679.13397	69.26826	-1290.60266	456.33774	120.57967	0.00000	0.00000	0.00000	-1226.73535	323.38907	96.35885	-1229.77258	278.25461	104.64836	-1291.19324	313.20493	103.39915	-1281.97693	274.81949	117.04459	-1228.95105	76.19796	140.60698	-1237.34595	82.65565	229.14252	-1162.72705	46.34779	180.39137	-1367.44275	18.26189	236.56348	-1402.85242	36.08293	195.59911	-1364.28113	17.39263	141.36357
2669	10.67200	-1093.36658	963.57379	249.64397	-1248.61121	947.42029	343.41223	-1165.75024	688.70154	383.03265	-1183.46631	629.09204	373.13126	-1227.75842	710.54303	391.26517	-1257.60059	651.73639	377.10223	-1260.83069	441.11108	358.25406	-1254.12378	423.65002	243.34601	-1160.91272	414.18222	373.07571	-1118.12659	392.60873	372.66187	-1194.46619	367.56000	372.85809	-1156.33496	339.95990	372.51251	-933.10272	222.36256	362.48285	-951.94885	234.02350	274.64999	-878.97504	275.60596	315.43445	-943.13135	79.09554	360.22516	-980.77509	74.09164	308.62735	-938.17230	96.45734	256.43756	-1098.39575	970.39935	174.49419	-1283.06238	954.57141	119.08424	-1203.89160	718.91150	39.87063	-1212.18750	659.24304	54.64632	-1265.78845	736.25116	53.05466	-1285.55225	679.12207	68.96861	-1291.84106	456.12457	120.20100	0.00000	0.00000	0.00000	-1227.59106	323.31833	96.16537	-1231.28491	277.58719	105.67062	-1292.09094	314.55191	104.08749	-1282.61145	273.63086	118.67390	-1229.04102	76.21913	140.58104	-1237.48767	82.74062	229.11310	-1162.84509	46.40475	180.42610	-1367.45032	18.26100	236.59389	-1402.96985	35.92522	195.61011	-1364.28894	17.28587	141.27611
2670	10.67600	-1097.19458	964.03418	249.64519	-1252.81897	947.60052	342.90247	-1171.77478	688.90289	382.88928	-1190.02454	629.39319	373.02420	-1233.43103	711.50989	390.98877	-1263.93225	652.73090	376.58527	-1269.27234	442.50006	357.64191	-1262.66162	424.98843	242.70198	-1169.48999	415.14191	372.23618	-1126.93005	393.26160	371.82880	-1203.52991	368.50342	372.07733	-1165.40979	340.81387	371.74081	-942.94238	222.42574	361.73630	-962.01526	233.28250	273.84897	-888.39105	274.34082	313.88742	-955.23096	79.13215	361.34100	-993.10468	74.06586	309.93713	-950.38208	95.18938	257.34872	-1102.13477	970.90503	174.53171	-1286.62610	954.85028	118.81517	-1206.72290	719.37952	39.58422	-1214.73914	659.64032	54.40554	-1269.06531	736.24506	52.89587	-1284.78015	680.69836	66.17515	-1292.89966	456.10526	119.54951	0.00000	0.00000	0.00000	-1228.31311	323.34299	95.91616	-1232.00806	277.48584	105.51302	-1292.76392	314.89493	104.07229	-1283.33118	273.37216	118.63983	-1229.17627	76.16563	140.60541	-1237.59473	82.80618	229.10088	-1162.91687	46.48781	180.46542	-1367.40759	18.29430	236.65431	-1403.07800	35.73442	195.55473	-1364.31592	17.14585	141.19972
